<svg width="16" height="16" viewBox="0 0 16 16" fill="none" xmlns="http://www.w3.org/2000/svg">
<path d="M8.9375 1.75C8.9375 1.50136 8.83873 1.2629 8.66291 1.08709C8.4871 0.911272 8.24864 0.8125 8 0.8125C7.75136 0.8125 7.5129 0.911272 7.33709 1.08709C7.16127 1.2629 7.0625 1.50136 7.0625 1.75V7.0625H1.75C1.50136 7.0625 1.2629 7.16127 1.08709 7.33709C0.911272 7.5129 0.8125 7.75136 0.8125 8C0.8125 8.24864 0.911272 8.4871 1.08709 8.66291C1.2629 8.83873 1.50136 8.9375 1.75 8.9375H7.0625V14.25C7.0625 14.4986 7.16127 14.7371 7.33709 14.9129C7.5129 15.0887 7.75136 15.1875 8 15.1875C8.24864 15.1875 8.4871 15.0887 8.66291 14.9129C8.83873 14.7371 8.9375 14.4986 8.9375 14.25V8.9375H14.25C14.4986 8.9375 14.7371 8.83873 14.9129 8.66291C15.0887 8.4871 15.1875 8.24864 15.1875 8C15.1875 7.75136 15.0887 7.5129 14.9129 7.33709C14.7371 7.16127 14.4986 7.0625 14.25 7.0625H8.9375V1.75Z" fill="black"/>
</svg>
