<svg width="8" height="12" viewBox="0 0 8 12" fill="none" xmlns="http://www.w3.org/2000/svg">
<path fill-rule="evenodd" clip-rule="evenodd" d="M7.53765 0.337499C7.71321 0.51328 7.81183 0.751561 7.81183 0.999999C7.81183 1.24844 7.71321 1.48672 7.53765 1.6625L3.20015 6L7.53765 10.3375C7.62976 10.4233 7.70364 10.5268 7.75488 10.6418C7.80612 10.7568 7.83367 10.881 7.83589 11.0068C7.83811 11.1327 7.81496 11.2578 7.76781 11.3745C7.72065 11.4912 7.65047 11.5973 7.56145 11.6863C7.47243 11.7753 7.36638 11.8455 7.24965 11.8927C7.13291 11.9398 7.00788 11.963 6.882 11.9607C6.75612 11.9585 6.63198 11.931 6.51698 11.8797C6.40198 11.8285 6.29848 11.7546 6.21265 11.6625L1.21265 6.6625C1.03709 6.48672 0.938477 6.24844 0.938477 6C0.938477 5.75156 1.03709 5.51328 1.21265 5.3375L6.21265 0.337499C6.38843 0.161936 6.62671 0.063324 6.87515 0.063324C7.12359 0.063324 7.36187 0.161936 7.53765 0.337499Z" fill="black"/>
</svg>
