<svg width="16" height="12" viewBox="0 0 16 12" fill="none" xmlns="http://www.w3.org/2000/svg">
<path fill-rule="evenodd" clip-rule="evenodd" d="M15.5374 0.962499C15.713 1.13828 15.8116 1.37656 15.8116 1.625C15.8116 1.87344 15.713 2.11172 15.5374 2.2875L6.78745 11.0375C6.61167 11.2131 6.37339 11.3117 6.12495 11.3117C5.87651 11.3117 5.63823 11.2131 5.46245 11.0375L0.462447 6.0375C0.370339 5.95167 0.296461 5.84817 0.245221 5.73317C0.193981 5.61817 0.166429 5.49403 0.164208 5.36815C0.161987 5.24227 0.185143 5.11724 0.232294 5.0005C0.279445 4.88377 0.349626 4.77773 0.43865 4.6887C0.527673 4.59968 0.633715 4.5295 0.75045 4.48235C0.867186 4.43519 0.992222 4.41204 1.1181 4.41426C1.24398 4.41648 1.36812 4.44403 1.48312 4.49527C1.59812 4.54651 1.70162 4.62039 1.78745 4.7125L6.12495 9.05L14.2124 0.962499C14.3882 0.786936 14.6265 0.688324 14.8749 0.688324C15.1234 0.688324 15.3617 0.786936 15.5374 0.962499Z" fill="black"/>
</svg>
