<svg width="30" height="30" viewBox="0 0 30 30" fill="none" xmlns="http://www.w3.org/2000/svg">
<path d="M11.1129 19.2538C10.9483 19.2717 10.7889 19.3221 10.6439 19.4021C10.499 19.4821 10.3714 19.5901 10.2685 19.7199C10.1657 19.8496 10.0896 19.9985 10.0448 20.1579C9.99992 20.3173 9.98719 20.484 10.0073 20.6483C10.0274 20.8127 10.08 20.9714 10.162 21.1152C10.2439 21.2591 10.3536 21.3852 10.4848 21.4863C10.6159 21.5874 10.7658 21.6615 10.9258 21.7042C11.0857 21.7469 11.2526 21.7573 11.4166 21.735C11.7422 21.6907 12.0373 21.5199 12.2379 21.2597C12.4386 20.9995 12.5287 20.6707 12.4888 20.3445C12.4489 20.0184 12.2821 19.721 12.0246 19.5169C11.7671 19.3128 11.4396 19.2182 11.1129 19.2538Z" fill="black"/>
<path d="M6.93525 15.9862C6.91292 15.8222 6.9234 15.6553 6.96609 15.4954C7.00878 15.3354 7.08283 15.1855 7.18393 15.0544C7.28503 14.9233 7.41117 14.8135 7.55503 14.7316C7.69889 14.6496 7.8576 14.597 8.02194 14.5769C8.18628 14.5568 8.35298 14.5695 8.51237 14.6144C8.67175 14.6592 8.82063 14.7353 8.95038 14.8381C9.08012 14.941 9.18814 15.0686 9.26815 15.2135C9.34817 15.3585 9.3986 15.5179 9.4165 15.6825C9.45203 16.0092 9.3575 16.3367 9.15336 16.5942C8.94921 16.8517 8.65189 17.0185 8.32572 17.0584C7.99955 17.0983 7.67077 17.0082 7.41055 16.8076C7.15032 16.6069 6.97957 16.3118 6.93525 15.9862Z" fill="black"/>
<path d="M9.89902 9.32749C9.73442 9.3454 9.57502 9.39582 9.43007 9.47584C9.28512 9.55586 9.15751 9.66387 9.05465 9.79362C8.9518 9.92336 8.87574 10.0722 8.8309 10.2316C8.78605 10.391 8.77332 10.5577 8.79344 10.7221C8.81356 10.8864 8.86613 11.0451 8.94809 11.189C9.03005 11.3328 9.13978 11.459 9.2709 11.5601C9.40202 11.6612 9.55191 11.7352 9.71188 11.7779C9.87186 11.8206 10.0387 11.8311 10.2028 11.8087C10.5284 11.7644 10.8234 11.5937 11.0241 11.3334C11.2247 11.0732 11.3148 10.7444 11.2749 10.4183C11.235 10.0921 11.0682 9.79478 10.8107 9.59064C10.5532 9.3865 10.2257 9.29196 9.89902 9.32749Z" fill="black"/>
<path d="M19.6208 11.6012C19.5985 11.4372 19.609 11.2703 19.6516 11.1104C19.6943 10.9504 19.7684 10.8005 19.8695 10.6694C19.9706 10.5382 20.0967 10.4285 20.2406 10.3466C20.3844 10.2646 20.5431 10.212 20.7075 10.1919C20.8718 10.1718 21.0385 10.1845 21.1979 10.2294C21.3573 10.2742 21.5062 10.3503 21.6359 10.4531C21.7657 10.556 21.8737 10.6836 21.9537 10.8285C22.0337 10.9735 22.0841 11.1329 22.102 11.2975C22.1376 11.6242 22.043 11.9517 21.8389 12.2092C21.6348 12.4667 21.3374 12.6335 21.0113 12.6734C20.6851 12.7133 20.3563 12.6232 20.0961 12.4225C19.8359 12.2219 19.6651 11.9268 19.6208 11.6012Z" fill="black"/>
<path d="M14.9914 13.5988C14.8263 13.616 14.6663 13.6659 14.5208 13.7456C14.3752 13.8253 14.2469 13.9332 14.1435 14.0631C14.04 14.1929 13.9635 14.342 13.9183 14.5017C13.8731 14.6614 13.8602 14.8285 13.8803 14.9933C13.9004 15.1581 13.9531 15.3172 14.0353 15.4613C14.1175 15.6055 14.2277 15.7319 14.3593 15.833C14.4909 15.9342 14.6413 16.0081 14.8018 16.0505C14.9622 16.0929 15.1295 16.103 15.2939 16.08C15.6185 16.0347 15.9124 15.8637 16.1121 15.6038C16.3119 15.344 16.4016 15.0161 16.3619 14.6907C16.3222 14.3654 16.1564 14.0686 15.9 13.8644C15.6437 13.6602 15.3174 13.5648 14.9914 13.5988Z" fill="black"/>
<path d="M14.2409 8.79625C14.2186 8.63219 14.2291 8.46533 14.2718 8.30536C14.3144 8.14539 14.3885 7.99549 14.4896 7.86437C14.5907 7.73326 14.7168 7.62353 14.8607 7.54157C15.0046 7.4596 15.1633 7.40704 15.3276 7.38692C15.4919 7.3668 15.6586 7.37953 15.818 7.42437C15.9774 7.46921 16.1263 7.54527 16.256 7.64813C16.3858 7.75099 16.4938 7.8786 16.5738 8.02355C16.6538 8.16849 16.7043 8.3279 16.7222 8.4925C16.7577 8.81917 16.6632 9.1467 16.459 9.4042C16.2549 9.6617 15.9576 9.82846 15.6314 9.86839C15.3052 9.90832 14.9764 9.81821 14.7162 9.61756C14.456 9.4169 14.2852 9.12185 14.2409 8.79625Z" fill="black"/>
<path fill-rule="evenodd" clip-rule="evenodd" d="M2.81612 14.705C2.97862 7.97499 8.56612 2.65249 15.2949 2.81624C22.0236 2.97874 27.3474 8.56624 27.1836 15.295C27.1777 15.7106 27.0304 16.1117 26.7661 16.4325C26.5225 16.7166 26.2131 16.9368 25.8649 17.0737C25.2374 17.3362 24.4511 17.4175 23.6724 17.4237C20.3111 17.4462 17.3924 20.3362 17.2011 23.7462C17.1574 24.5412 17.0211 25.35 16.6786 25.9862C16.4976 26.3365 16.2311 26.6354 15.9036 26.855C15.5466 27.0847 15.1278 27.1994 14.7036 27.1837C7.97612 27.0212 2.65362 21.4337 2.81612 14.705ZM15.2499 4.68999C13.8925 4.65127 12.5408 4.88102 11.2724 5.36606C10.004 5.8511 8.84388 6.58187 7.85866 7.51644C6.87344 8.451 6.0825 9.57094 5.53124 10.812C4.97998 12.053 4.67925 13.3907 4.64633 14.7483C4.61341 16.1059 4.84894 17.4566 5.3394 18.7229C5.82986 19.9892 6.56558 21.1461 7.50435 22.1274C8.44312 23.1086 9.56643 23.8947 10.8098 24.4407C12.0532 24.9866 13.3922 25.2816 14.7499 25.3087C14.8349 25.3112 14.8661 25.2937 14.8824 25.2837C14.9456 25.234 14.9958 25.1697 15.0286 25.0962C15.1749 24.825 15.2911 24.345 15.3286 23.6412C15.5724 19.2975 19.2549 15.5787 23.6599 15.5475C24.3624 15.5437 24.8549 15.4625 25.1424 15.3437C25.2029 15.3213 25.2595 15.2892 25.3099 15.2487C25.376 12.5145 24.3532 9.86605 22.4666 7.8859C20.58 5.90576 17.9841 4.75616 15.2499 4.68999Z" fill="black"/>
</svg>
