<svg width="30" height="30" viewBox="0 0 30 30" fill="none" xmlns="http://www.w3.org/2000/svg">
<path d="M17.5 11.25C17.5 10.7527 17.6975 10.2758 18.0492 9.92417C18.4008 9.57254 18.8777 9.375 19.375 9.375C19.8723 9.375 20.3492 9.57254 20.7008 9.92417C21.0525 10.2758 21.25 10.7527 21.25 11.25C21.25 11.7473 21.0525 12.2242 20.7008 12.5758C20.3492 12.9275 19.8723 13.125 19.375 13.125C18.8777 13.125 18.4008 12.9275 18.0492 12.5758C17.6975 12.2242 17.5 11.7473 17.5 11.25Z" fill="black"/>
<path fill-rule="evenodd" clip-rule="evenodd" d="M9.08512 5.82249C13.0214 5.48031 16.98 5.48031 20.9164 5.82249L22.8039 5.98749C23.6814 6.0639 24.5077 6.43343 25.1496 7.03659C25.7915 7.63976 26.2118 8.44143 26.3426 9.31249C26.9096 13.083 26.9096 16.917 26.3426 20.6875C26.2118 21.5586 25.7915 22.3602 25.1496 22.9634C24.5077 23.5666 23.6814 23.9361 22.8039 24.0125L20.9164 24.1762C16.98 24.5185 13.0214 24.5185 9.08512 24.1762L7.19762 24.0125C6.31987 23.9364 5.49332 23.5669 4.85113 22.9638C4.20894 22.3606 3.78853 21.5588 3.65762 20.6875C3.09069 16.917 3.09069 13.083 3.65762 9.31249C3.78847 8.44143 4.20871 7.63976 4.85064 7.03659C5.49258 6.43343 6.31884 6.0639 7.19637 5.98749L9.08512 5.82249ZM20.7539 7.69124C16.9253 7.3584 13.075 7.3584 9.24637 7.69124L7.35887 7.85499C6.90107 7.89505 6.47005 8.08794 6.13517 8.40265C5.80028 8.71735 5.58101 9.13556 5.51262 9.58999C5.19121 11.7283 5.06111 13.8911 5.12387 16.0525L9.96262 11.2125C10.0529 11.1223 10.1607 11.0516 10.2793 11.0045C10.3979 10.9575 10.5249 10.9351 10.6525 10.9389C10.78 10.9426 10.9055 10.9724 11.0212 11.0263C11.1368 11.0802 11.2402 11.1572 11.3251 11.2525L15.9151 16.415L19.0776 15.36C19.251 15.302 19.4376 15.2959 19.6144 15.3425C19.7911 15.3892 19.9504 15.4865 20.0726 15.6225L24.4714 20.51L24.4889 20.41C25.0283 16.8235 25.0283 13.1765 24.4889 9.58999C24.4204 9.13537 24.201 8.71701 23.8658 8.40228C23.5307 8.08756 23.0994 7.89478 22.6414 7.85499L20.7539 7.69124ZM23.2751 21.985L19.0889 17.3337L15.9214 18.3887C15.7475 18.4466 15.5604 18.4522 15.3833 18.4049C15.2063 18.3576 15.047 18.2594 14.9251 18.1225L10.5851 13.2412L5.28012 18.545C5.34137 19.1675 5.41762 19.79 5.51137 20.4087C5.57955 20.8636 5.7989 21.2822 6.13406 21.5972C6.46921 21.9122 6.90066 22.1052 7.35887 22.145L9.24637 22.3087C13.0751 22.6412 16.9251 22.6412 20.7539 22.3087L22.6414 22.145C22.8651 22.125 23.0789 22.07 23.2751 21.985Z" fill="black"/>
</svg>
