<svg width="30" height="30" viewBox="0 0 30 30" fill="none" xmlns="http://www.w3.org/2000/svg">
<path fill-rule="evenodd" clip-rule="evenodd" d="M26.8189 6.77C26.9376 6.95026 26.9905 7.16598 26.9687 7.38073C26.9468 7.59549 26.8515 7.79612 26.6989 7.94875L15.2076 19.4387C15.0901 19.5562 14.9434 19.6404 14.7826 19.6825L9.99636 20.9325C9.83815 20.9738 9.6719 20.9729 9.5141 20.9301C9.35631 20.8872 9.21247 20.8039 9.09685 20.6883C8.98124 20.5726 8.89787 20.4288 8.85502 20.271C8.81218 20.1132 8.81135 19.947 8.85261 19.7887L10.1026 15.0037C10.1391 14.8601 10.2079 14.7267 10.3039 14.6137L21.8376 3.0875C22.0134 2.91194 22.2517 2.81332 22.5001 2.81332C22.7486 2.81332 22.9868 2.91194 23.1626 3.0875L26.6989 6.6225C26.7437 6.66751 26.7839 6.71692 26.8189 6.77ZM24.7101 7.285L22.5001 5.07625L11.8526 15.7237L11.0714 18.715L14.0626 17.9337L24.7101 7.285Z" fill="black"/>
<path d="M24.5509 21.45C24.8926 18.5299 25.0017 15.5873 24.8772 12.65C24.8744 12.5808 24.886 12.5118 24.9111 12.4472C24.9363 12.3827 24.9745 12.3241 25.0234 12.275L26.2534 11.045C26.2871 11.0112 26.3297 10.9878 26.3763 10.9777C26.4229 10.9675 26.4714 10.9711 26.516 10.9878C26.5606 11.0046 26.5995 11.0339 26.6278 11.0722C26.6562 11.1105 26.6729 11.1562 26.6759 11.2038C26.9074 14.6928 26.8195 18.1957 26.4134 21.6688C26.1184 24.1963 24.0884 26.1775 21.5722 26.4588C17.2039 26.9425 12.7955 26.9425 8.4272 26.4588C5.9122 26.1775 3.88094 24.1963 3.58594 21.6688C3.06771 17.238 3.06771 12.762 3.58594 8.33125C3.88094 5.80375 5.91095 3.8225 8.4272 3.54125C11.7427 3.17361 15.0831 3.08454 18.4134 3.275C18.4611 3.27843 18.5068 3.29543 18.5451 3.32402C18.5834 3.3526 18.6127 3.39156 18.6295 3.43628C18.6463 3.481 18.65 3.52961 18.6401 3.57635C18.6301 3.62309 18.607 3.666 18.5734 3.7L17.3322 4.94C17.2836 4.98844 17.2256 5.0264 17.1617 5.05156C17.0979 5.07671 17.0295 5.08852 16.9609 5.08625C14.1819 4.99178 11.3996 5.09831 8.63595 5.405C7.82837 5.49439 7.07451 5.85341 6.49614 6.42407C5.91777 6.99473 5.54866 7.7437 5.44845 8.55C4.94726 12.8354 4.94726 17.1646 5.44845 21.45C5.54866 22.2563 5.91777 23.0053 6.49614 23.5759C7.07451 24.1466 7.82837 24.5056 8.63595 24.595C12.8659 25.0637 17.1347 25.0637 21.3647 24.595C22.1723 24.5056 22.9261 24.1466 23.5045 23.5759C24.0829 23.0053 24.4507 22.2563 24.5509 21.45Z" fill="black"/>
</svg>
