<svg width="30" height="30" viewBox="0 0 30 30" fill="none" xmlns="http://www.w3.org/2000/svg">
<path d="M18.2625 6.05751C18.2349 5.83465 18.1478 5.62335 18.0103 5.4458C17.8728 5.26825 17.69 5.13102 17.4812 5.04852C17.2723 4.96603 17.0451 4.94132 16.8234 4.977C16.6017 5.01267 16.3937 5.10741 16.2213 5.25126L9.9475 10.48C9.83523 10.5736 9.69369 10.6249 9.5475 10.625H4.6875C3.825 10.625 3.125 11.325 3.125 12.1875V17.8125C3.125 18.675 3.825 19.375 4.6875 19.375H9.5475C9.69369 19.3751 9.83523 19.4264 9.9475 19.52L16.2225 24.7475C16.3949 24.891 16.6027 24.9855 16.8241 25.021C17.0455 25.0566 17.2724 25.0319 17.4811 24.9496C17.6897 24.8672 17.8723 24.7303 18.0098 24.5531C18.1473 24.3759 18.2346 24.165 18.2625 23.9425L18.3813 22.985C19.0437 17.6825 19.0437 12.3175 18.3813 7.01501L18.2625 6.05751Z" fill="black"/>
<path d="M24.8846 7.43247C25.0015 7.39372 25.1249 7.37837 25.2477 7.38729C25.3705 7.39622 25.4903 7.42926 25.6004 7.48451C25.7104 7.53976 25.8085 7.61615 25.889 7.70931C25.9695 7.80248 26.0309 7.91059 26.0696 8.02747C26.7946 10.2212 27.1871 12.565 27.1871 15C27.1892 17.3689 26.812 19.7229 26.0696 21.9725C26.0322 22.0908 25.9716 22.2006 25.8914 22.2953C25.8112 22.3901 25.713 22.468 25.6024 22.5245C25.4919 22.581 25.3712 22.615 25.2475 22.6245C25.1237 22.634 24.9992 22.6188 24.8814 22.5798C24.7635 22.5408 24.6546 22.4788 24.5609 22.3974C24.4672 22.3159 24.3906 22.2167 24.3355 22.1054C24.2805 21.9942 24.248 21.8731 24.2402 21.7492C24.2323 21.6253 24.2491 21.5011 24.2896 21.3837C24.9689 19.324 25.3141 17.1688 25.3121 15C25.3141 12.8311 24.9689 10.676 24.2896 8.61622C24.2117 8.38034 24.2307 8.12319 24.3422 7.90125C24.4538 7.6793 24.6489 7.5107 24.8846 7.43247Z" fill="black"/>
<path d="M22.5407 9.93499C22.4531 9.70409 22.278 9.51705 22.0534 9.4145C21.8288 9.31195 21.5727 9.30217 21.3409 9.38729C21.1091 9.4724 20.9203 9.64554 20.8154 9.86909C20.7105 10.0926 20.698 10.3486 20.7807 10.5812C21.2869 11.9562 21.5632 13.445 21.5632 15C21.5643 16.5075 21.2994 18.0033 20.7807 19.4187C20.698 19.6514 20.7105 19.9073 20.8154 20.1309C20.9203 20.3544 21.1091 20.5276 21.3409 20.6127C21.5727 20.6978 21.8288 20.688 22.0534 20.5855C22.278 20.4829 22.4531 20.2959 22.5407 20.065C23.1375 18.4431 23.4414 16.7282 23.4382 15C23.4382 13.2212 23.1219 11.515 22.5407 9.93499Z" fill="black"/>
</svg>
