<svg width="30" height="30" viewBox="0 0 30 30" fill="none" xmlns="http://www.w3.org/2000/svg">
<path fill-rule="evenodd" clip-rule="evenodd" d="M14.9992 2.8125C14.7505 2.8125 14.5121 2.91127 14.3362 3.08709C14.1604 3.2629 14.0617 3.50136 14.0617 3.75V17.825C13.1242 17.0297 11.9399 16.5842 10.7107 16.5644C9.48149 16.5445 8.28346 16.9516 7.32082 17.7163C6.35817 18.4809 5.69051 19.5557 5.43163 20.7575C5.17275 21.9593 5.33869 23.2137 5.90116 24.3068C6.46363 25.3999 7.38781 26.2642 8.51616 26.7522C9.64451 27.2402 10.9072 27.3218 12.089 26.983C13.2707 26.6442 14.2984 25.9061 14.9969 24.8944C15.6953 23.8827 16.0213 22.6601 15.9192 21.435C15.931 21.3741 15.9369 21.3121 15.9367 21.25V9.6875H22.4992C23.4108 9.6875 24.2852 9.32534 24.9298 8.68068C25.5745 8.03602 25.9367 7.16168 25.9367 6.25C25.9367 5.33832 25.5745 4.46398 24.9298 3.81932C24.2852 3.17466 23.4108 2.8125 22.4992 2.8125H14.9992ZM15.9367 7.8125H22.4992C22.9136 7.8125 23.311 7.64788 23.604 7.35485C23.897 7.06183 24.0617 6.6644 24.0617 6.25C24.0617 5.8356 23.897 5.43817 23.604 5.14515C23.311 4.85212 22.9136 4.6875 22.4992 4.6875H15.9367V7.8125ZM10.6242 18.4375C9.71247 18.4375 8.83813 18.7997 8.19348 19.4443C7.54882 20.089 7.18666 20.9633 7.18666 21.875C7.18666 22.7867 7.54882 23.661 8.19348 24.3057C8.83813 24.9503 9.71247 25.3125 10.6242 25.3125C11.5358 25.3125 12.4102 24.9503 13.0548 24.3057C13.6995 23.661 14.0617 22.7867 14.0617 21.875C14.0617 20.9633 13.6995 20.089 13.0548 19.4443C12.4102 18.7997 11.5358 18.4375 10.6242 18.4375Z" fill="black"/>
</svg>
