<svg width="23" height="16" viewBox="0 0 23 16" fill="none" xmlns="http://www.w3.org/2000/svg">
<path d="M13.4507 2.21665C13.2299 1.9797 13.1096 1.66629 13.1154 1.34245C13.1211 1.01862 13.2523 0.70964 13.4813 0.480618C13.7103 0.251597 14.0193 0.12041 14.3431 0.114697C14.667 0.108983 14.9804 0.229188 15.2173 0.449988L21.884 7.11666C22.1181 7.35103 22.2496 7.66874 22.2496 7.99999C22.2496 8.33124 22.1181 8.64895 21.884 8.88332L15.2173 15.55C15.1029 15.6728 14.9649 15.7713 14.8115 15.8396C14.6582 15.9079 14.4927 15.9447 14.3249 15.9476C14.157 15.9506 13.9903 15.9197 13.8347 15.8569C13.679 15.794 13.5376 15.7004 13.4189 15.5817C13.3002 15.463 13.2066 15.3216 13.1438 15.166C13.0809 15.0103 13.05 14.8436 13.053 14.6758C13.056 14.5079 13.0927 14.3424 13.161 14.1891C13.2293 14.0358 13.3278 13.8978 13.4507 13.7833L17.984 9.24999H1.83398C1.50246 9.24999 1.18452 9.11829 0.950101 8.88387C0.71568 8.64945 0.583984 8.33151 0.583984 7.99999C0.583984 7.66847 0.71568 7.35053 0.950101 7.11611C1.18452 6.88169 1.50246 6.74999 1.83398 6.74999H17.984L13.4507 2.21665Z" fill="black"/>
</svg>
