<svg width="30" height="30" viewBox="0 0 30 30" fill="none" xmlns="http://www.w3.org/2000/svg">
<path fill-rule="evenodd" clip-rule="evenodd" d="M24.0824 13.105C24.3717 13.3289 24.6059 13.6162 24.7671 13.9446C24.9282 14.2731 25.012 14.6341 25.012 15C25.012 15.3659 24.9282 15.7269 24.7671 16.0554C24.6059 16.3839 24.3717 16.6711 24.0824 16.895C20.3355 19.7942 16.1517 22.0794 11.6874 23.665L10.8711 23.955C9.31112 24.5088 7.66362 23.4538 7.45237 21.8425C6.86223 17.2999 6.86223 12.7001 7.45237 8.15751C7.66362 6.54626 9.31112 5.49126 10.8711 6.04501L11.6874 6.33501C16.1516 7.92068 20.3355 10.2059 24.0824 13.105ZM22.9349 15.4125C22.9979 15.3638 23.049 15.3013 23.0841 15.2298C23.1192 15.1583 23.1375 15.0797 23.1375 15C23.1375 14.9203 23.1192 14.8417 23.0841 14.7702C23.049 14.6987 22.9979 14.6362 22.9349 14.5875C19.3452 11.8098 15.3369 9.62043 11.0599 8.10126L10.2436 7.81126C10.1434 7.77835 10.0372 7.76802 9.93252 7.781C9.82785 7.79398 9.72736 7.82996 9.63823 7.88635C9.5491 7.94274 9.47356 8.01815 9.417 8.10717C9.36045 8.19619 9.32429 8.29662 9.31112 8.40126C8.74219 12.782 8.74219 17.218 9.31112 21.5988C9.32446 21.7033 9.36074 21.8036 9.41736 21.8925C9.47398 21.9813 9.54955 22.0566 9.63866 22.1128C9.72776 22.1691 9.8282 22.205 9.93278 22.2179C10.0374 22.2308 10.1435 22.2204 10.2436 22.1875L11.0599 21.8988C15.337 20.3792 19.3453 18.1906 22.9349 15.4125Z" fill="black"/>
</svg>
