<svg width="30" height="30" viewBox="0 0 30 30" fill="none" xmlns="http://www.w3.org/2000/svg">
<path fill-rule="evenodd" clip-rule="evenodd" d="M23.1687 5.95749C24.0812 6.29499 24.6875 7.16374 24.6875 8.13624V21.8625C24.6875 22.835 24.0812 23.705 23.1687 24.0412C21.9303 24.4975 20.5697 24.4975 19.3313 24.0412C18.8856 23.8771 18.5011 23.5801 18.2295 23.1905C17.9579 22.8009 17.8124 22.3374 17.8125 21.8625V8.13749C17.8125 7.16499 18.4188 6.29499 19.3313 5.95874C20.5697 5.50244 21.9303 5.50244 23.1687 5.95874V5.95749ZM22.8125 8.13749C22.8125 8.04615 22.7844 7.95701 22.7321 7.88213C22.6798 7.80724 22.6058 7.75022 22.52 7.71874C21.7002 7.41685 20.7998 7.41685 19.98 7.71874C19.8942 7.75022 19.8202 7.80724 19.7679 7.88213C19.7156 7.95701 19.6875 8.04615 19.6875 8.13749V21.8625C19.6875 22.05 19.8038 22.2175 19.98 22.2812C20.7998 22.5831 21.7002 22.5831 22.52 22.2812C22.6058 22.2498 22.6798 22.1927 22.7321 22.1179C22.7844 22.043 22.8125 21.9538 22.8125 21.8625V8.13749Z" fill="black"/>
<path fill-rule="evenodd" clip-rule="evenodd" d="M10.6687 5.95749C11.5812 6.29499 12.1875 7.16374 12.1875 8.13624V21.8625C12.1875 22.835 11.5812 23.705 10.6687 24.0412C9.43028 24.4975 8.06972 24.4975 6.83125 24.0412C6.38562 23.8771 6.00107 23.5801 5.72949 23.1905C5.45791 22.8009 5.31237 22.3374 5.3125 21.8625V8.13749C5.3125 7.16499 5.91875 6.29499 6.83125 5.95874C8.06972 5.50244 9.43028 5.50244 10.6687 5.95874V5.95749ZM10.3125 8.13749C10.3125 8.04615 10.2844 7.95701 10.2321 7.88213C10.1798 7.80724 10.1058 7.75022 10.02 7.71874C9.20024 7.41685 8.29976 7.41685 7.48 7.71874C7.39425 7.75022 7.32022 7.80724 7.26791 7.88213C7.2156 7.95701 7.18754 8.04615 7.1875 8.13749V21.8625C7.1875 22.05 7.30375 22.2175 7.48 22.2812C8.29976 22.5831 9.20024 22.5831 10.02 22.2812C10.1058 22.2498 10.1798 22.1927 10.2321 22.1179C10.2844 22.043 10.3125 21.9538 10.3125 21.8625V8.13749Z" fill="black"/>
</svg>
