<svg width="19" height="18" viewBox="0 0 19 18" fill="none" xmlns="http://www.w3.org/2000/svg">
<path fill-rule="evenodd" clip-rule="evenodd" d="M0.489752 3.237C0.569899 2.55197 0.898836 1.92022 1.41409 1.46175C1.92935 1.00327 2.59505 0.749985 3.28475 0.75H14.0268C14.2089 0.749848 14.3848 0.81596 14.5218 0.936L17.2818 3.36C17.9028 3.905 18.2458 4.7 18.2158 5.525L17.8718 15.099C17.8461 15.8107 17.5454 16.4847 17.0328 16.9792C16.5203 17.4736 15.8359 17.7499 15.1238 17.75H3.11375C2.47101 17.7501 1.85029 17.5159 1.36783 17.0912C0.885362 16.6665 0.57425 16.0806 0.492752 15.443C-0.00385597 11.5648 -0.0253483 7.64043 0.428752 3.757L0.489752 3.237ZM3.28475 2.25C2.61775 2.25 2.05675 2.75 1.97975 3.411L1.91875 3.931C1.47876 7.69347 1.49958 11.4956 1.98075 15.253C2.05375 15.823 2.53875 16.25 3.11375 16.25H3.75075V12C3.75075 11.034 4.53375 10.25 5.50075 10.25H12.5008C13.4668 10.25 14.2508 11.034 14.2508 12V16.25H15.1238C15.4476 16.2502 15.7589 16.1247 15.9921 15.8999C16.2253 15.6752 16.3621 15.3687 16.3738 15.045L16.7168 5.472C16.7236 5.28664 16.6891 5.10209 16.6157 4.93172C16.5424 4.76135 16.4321 4.60944 16.2928 4.487L13.7508 2.255V4.6C13.7508 5.06413 13.5664 5.50925 13.2382 5.83744C12.91 6.16563 12.4649 6.35 12.0008 6.35H6.00075C5.53662 6.35 5.0915 6.16563 4.76332 5.83744C4.43513 5.50925 4.25075 5.06413 4.25075 4.6V2.25H3.28475ZM5.75075 2.25V4.6C5.75075 4.738 5.86275 4.85 6.00075 4.85H12.0008C12.0671 4.85 12.1306 4.82366 12.1775 4.77678C12.2244 4.72989 12.2508 4.6663 12.2508 4.6V2.25H5.75075ZM12.7508 16.25H5.25075V12C5.25075 11.9337 5.27709 11.8701 5.32398 11.8232C5.37086 11.7763 5.43445 11.75 5.50075 11.75H12.5008C12.5671 11.75 12.6306 11.7763 12.6775 11.8232C12.7244 11.8701 12.7508 11.9337 12.7508 12V16.25Z" fill="black"/>
</svg>
