<svg width="23" height="16" viewBox="0 0 23 16" fill="none" xmlns="http://www.w3.org/2000/svg">
<path d="M9.38427 2.21664C9.50708 2.1022 9.60558 1.9642 9.6739 1.81087C9.74222 1.65754 9.77896 1.49201 9.78192 1.32418C9.78488 1.15634 9.75401 0.989622 9.69114 0.833975C9.62827 0.678328 9.5347 0.536938 9.416 0.41824C9.2973 0.299542 9.15591 0.205968 9.00027 0.1431C8.84462 0.0802313 8.6779 0.0493573 8.51007 0.0523186C8.34223 0.0552799 8.1767 0.0920157 8.02337 0.160336C7.87004 0.228656 7.73204 0.327159 7.6176 0.449971L0.950935 7.11664C0.834629 7.23247 0.742343 7.37013 0.679372 7.52171C0.616401 7.6733 0.583984 7.83583 0.583984 7.99997C0.583984 8.16412 0.616401 8.32664 0.679372 8.47823C0.742343 8.62982 0.834629 8.76747 0.950935 8.8833L7.6176 15.55C7.73204 15.6728 7.87004 15.7713 8.02337 15.8396C8.1767 15.9079 8.34223 15.9447 8.51007 15.9476C8.6779 15.9506 8.84462 15.9197 9.00027 15.8568C9.15591 15.794 9.2973 15.7004 9.416 15.5817C9.5347 15.463 9.62827 15.3216 9.69114 15.166C9.75401 15.0103 9.78488 14.8436 9.78192 14.6758C9.77896 14.5079 9.74222 14.3424 9.6739 14.1891C9.60558 14.0357 9.50708 13.8977 9.38427 13.7833L4.85094 9.24997H21.0009C21.3325 9.24997 21.6504 9.11827 21.8848 8.88385C22.1192 8.64943 22.2509 8.33149 22.2509 7.99997C22.2509 7.66845 22.1192 7.35051 21.8848 7.11609C21.6504 6.88167 21.3325 6.74997 21.0009 6.74997H4.85094L9.38427 2.21664Z" fill="black"/>
</svg>
