<svg width="21" height="26" viewBox="0 0 21 26" fill="none" xmlns="http://www.w3.org/2000/svg">
<path fill-rule="evenodd" clip-rule="evenodd" d="M10.0001 0.8125C9.75149 0.8125 9.51304 0.911272 9.33722 1.08709C9.1614 1.2629 9.06263 1.50136 9.06263 1.75V15.825C8.12515 15.0297 6.94087 14.5842 5.71167 14.5644C4.48247 14.5445 3.28444 14.9516 2.32179 15.7163C1.35915 16.4809 0.691482 17.5557 0.432606 18.7575C0.173729 19.9593 0.339669 21.2137 0.902137 22.3068C1.46461 23.3999 2.38878 24.2642 3.51714 24.7522C4.64549 25.2402 5.90816 25.3218 7.08993 24.983C8.27169 24.6442 9.29939 23.9061 9.99783 22.8944C10.6963 21.8827 11.0222 20.6601 10.9201 19.435C10.932 19.3741 10.9379 19.3121 10.9376 19.25V7.6875H17.5001C18.4118 7.6875 19.2862 7.32534 19.9308 6.68068C20.5755 6.03602 20.9376 5.16168 20.9376 4.25C20.9376 3.33832 20.5755 2.46398 19.9308 1.81932C19.2862 1.17466 18.4118 0.8125 17.5001 0.8125H10.0001ZM10.9376 5.8125H17.5001C17.9145 5.8125 18.312 5.64788 18.605 5.35485C18.898 5.06183 19.0626 4.6644 19.0626 4.25C19.0626 3.8356 18.898 3.43817 18.605 3.14515C18.312 2.85212 17.9145 2.6875 17.5001 2.6875H10.9376V5.8125ZM5.62513 16.4375C4.71345 16.4375 3.83911 16.7997 3.19445 17.4443C2.5498 18.089 2.18763 18.9633 2.18763 19.875C2.18763 20.7867 2.5498 21.661 3.19445 22.3057C3.83911 22.9503 4.71345 23.3125 5.62513 23.3125C6.53681 23.3125 7.41116 22.9503 8.05581 22.3057C8.70047 21.661 9.06263 20.7867 9.06263 19.875C9.06263 18.9633 8.70047 18.089 8.05581 17.4443C7.41116 16.7997 6.53681 16.4375 5.62513 16.4375Z" fill="black"/>
</svg>
